<?xml version="1.0" encoding="iso-8859-1"?>
<!-- Generator: Adobe Illustrator 19.1.0, SVG Export Plug-In . SVG Version: 6.00 Build 0)  -->
<svg version="1.1" id="Capa_1" xmlns="http://www.w3.org/2000/svg" xmlns:xlink="http://www.w3.org/1999/xlink" x="0px" y="0px"
	 viewBox="0 0 66.38 66.38" style="enable-background:new 0 0 66.38 66.38;" xml:space="preserve">
<g>
	<g id="group-34svg">
		<path id="path-1_26_" style="fill:#EDC951;" d="M66.38,35.349c0,16.617-13.471,30.087-30.089,30.087
			c-16.619,0-30.09-13.47-30.09-30.087c0-16.615,13.471-30.085,30.09-30.085C52.909,5.265,66.38,18.735,66.38,35.349z"/>
		<path id="path-2_26_" d="M32.085,51.28c-4.261,0-7.752-1.622-7.955-1.718c-0.748-0.354-1.068-1.249-0.713-1.997
			c0.354-0.748,1.249-1.067,1.995-0.715c0.096,0.045,5.909,2.705,10.935,0.642c2.779-1.14,4.864-3.556,6.2-7.18
			c0.286-0.778,1.151-1.175,1.926-0.889c0.777,0.286,1.175,1.148,0.889,1.926c-1.642,4.454-4.298,7.458-7.897,8.927
			C35.657,51.014,33.808,51.28,32.085,51.28z"/>
		<path id="path-3_26_" style="fill:#FFFFFF;" d="M55.237,28.251c0,3.413-2.766,6.18-6.179,6.18c-3.413,0-6.18-2.767-6.18-6.18
			s2.767-6.179,6.18-6.179C52.471,22.073,55.237,24.839,55.237,28.251z"/>
		<path id="path-4_26_" style="fill:#FFFFFF;" d="M31.866,28.251c0,3.413-2.767,6.18-6.18,6.18s-6.179-2.767-6.179-6.18
			s2.766-6.179,6.179-6.179S31.866,24.839,31.866,28.251z"/>
		<path id="path-5_26_" d="M44.356,33.111c-4.235,0-7.68-3.445-7.68-7.679c0-4.235,3.445-7.68,7.68-7.68s7.68,3.445,7.68,7.68
			C52.036,29.666,48.591,33.111,44.356,33.111z M44.356,20.751c-2.58,0-4.68,2.099-4.68,4.68c0,2.58,2.1,4.679,4.68,4.679
			c2.581,0,4.68-2.099,4.68-4.679C49.036,22.851,46.937,20.751,44.356,20.751z"/>
		<path id="path-6_21_" d="M20.985,33.111c-4.235,0-7.68-3.445-7.68-7.679c0-4.235,3.445-7.68,7.68-7.68
			c4.234,0,7.68,3.445,7.68,7.68C28.665,29.666,25.219,33.111,20.985,33.111z M20.985,20.751c-2.581,0-4.68,2.099-4.68,4.68
			c0,2.58,2.099,4.679,4.68,4.679s4.68-2.099,4.68-4.679C25.665,22.851,23.566,20.751,20.985,20.751z"/>
		<path id="path-7_20_" d="M47.111,25.059c0,1.727-1.4,3.127-3.127,3.127c-1.728,0-3.127-1.4-3.127-3.127
			c0-1.727,1.399-3.126,3.127-3.126C45.711,21.933,47.111,23.331,47.111,25.059z"/>
		<path id="path-8_13_" d="M23.74,25.059c0,1.727-1.401,3.127-3.128,3.127s-3.126-1.4-3.126-3.127c0-1.727,1.399-3.126,3.126-3.126
			S23.74,23.331,23.74,25.059z"/>
		<path id="path-9_10_" d="M31.589,64.116C14.171,64.116,0,49.945,0,32.53S14.171,0.944,31.589,0.944s31.59,14.17,31.59,31.586
			S49.007,64.116,31.589,64.116z M31.589,3.944C15.825,3.944,3,16.767,3,32.53c0,15.763,12.825,28.586,28.589,28.586
			c15.765,0,28.59-12.823,28.59-28.586C60.179,16.767,47.354,3.944,31.589,3.944z"/>
	</g>
</g>
<g>
</g>
<g>
</g>
<g>
</g>
<g>
</g>
<g>
</g>
<g>
</g>
<g>
</g>
<g>
</g>
<g>
</g>
<g>
</g>
<g>
</g>
<g>
</g>
<g>
</g>
<g>
</g>
<g>
</g>
</svg>
