<?xml version="1.0" encoding="iso-8859-1"?>
<!-- Generator: Adobe Illustrator 19.1.0, SVG Export Plug-In . SVG Version: 6.00 Build 0)  -->
<svg version="1.1" id="Capa_1" xmlns="http://www.w3.org/2000/svg" xmlns:xlink="http://www.w3.org/1999/xlink" x="0px" y="0px"
	 viewBox="0 0 65.427 65.427" style="enable-background:new 0 0 65.427 65.427;" xml:space="preserve">
<g>
	<g id="group-7svg">
		<path id="path-1_47_" style="fill:#EDC951;" d="M65.427,35.317c0,16.371-13.274,29.643-29.648,29.643
			c-16.373,0-29.646-13.272-29.646-29.643c0-16.372,13.273-29.644,29.646-29.644C52.153,5.673,65.427,18.945,65.427,35.317z"/>
		<path id="path-2_47_" d="M18.845,48.174c-0.828,0-1.5-0.671-1.5-1.5c0-6.86,5.515-12.442,12.296-12.442h5.398
			c6.78,0,12.296,5.548,12.296,12.368c0,0.829-0.672,1.5-1.5,1.5c-0.828,0-1.5-0.671-1.5-1.5c0-5.165-4.17-9.369-9.296-9.369h-5.398
			c-5.126,0-9.296,4.236-9.296,9.443C20.345,47.504,19.673,48.174,18.845,48.174z"/>
		<path id="path-3_47_" d="M25.297,23.278c-0.384,0-0.768-0.146-1.061-0.439c-1.422-1.421-3.771-1.472-5.134-0.11
			c-0.586,0.586-1.536,0.586-2.122,0c-0.586-0.585-0.586-1.535,0-2.12c2.512-2.512,6.805-2.463,9.377,0.109
			c0.586,0.585,0.586,1.535,0,2.121C26.064,23.132,25.681,23.278,25.297,23.278z"/>
		<path id="path-4_47_" d="M45.701,23.278c-0.384,0-0.768-0.146-1.06-0.439c-1.422-1.421-3.772-1.472-5.135-0.11
			c-0.586,0.586-1.535,0.586-2.121,0c-0.586-0.585-0.586-1.535,0-2.12c2.511-2.512,6.805-2.463,9.377,0.109
			c0.586,0.585,0.586,1.535,0,2.121C46.469,23.132,46.085,23.278,45.701,23.278z"/>
		<path id="path-5_47_" d="M31.147,62.754C13.973,62.754,0,48.783,0,31.611S13.973,0.468,31.147,0.468s31.147,13.971,31.147,31.143
			S48.321,62.754,31.147,62.754z M31.147,3.468C15.627,3.468,3,16.092,3,31.611s12.627,28.144,28.147,28.144
			c15.521,0,28.147-12.625,28.147-28.144S46.668,3.468,31.147,3.468z"/>
	</g>
</g>
<g>
</g>
<g>
</g>
<g>
</g>
<g>
</g>
<g>
</g>
<g>
</g>
<g>
</g>
<g>
</g>
<g>
</g>
<g>
</g>
<g>
</g>
<g>
</g>
<g>
</g>
<g>
</g>
<g>
</g>
</svg>
